<svg width="56" height="56" viewBox="0 0 56 56" fill="none" xmlns="http://www.w3.org/2000/svg">
<g clip-path="url(#clip0_791_614)" filter="url(#filter0_d_791_614)">
<path d="M25.8186 18.5453V20.7272H23.6367V23.9999H25.8186V33.818H30.1822V23.9999H33.084L33.4549 20.7272H30.1822V18.818C30.1822 17.9345 30.2694 17.4653 31.633 17.4653H33.4549V14.1816H30.5313C27.0404 14.1817 25.8186 15.818 25.8186 18.5453Z" fill="#00507C"/>
<path d="M28 0C14.7452 0 4 10.7452 4 24C4 37.2548 14.7452 48 28 48C41.2548 48 52 37.2548 52 24C52 10.7452 41.2548 0 28 0ZM28 45.8182C15.9501 45.8182 6.18184 36.0499 6.18184 24C6.18184 11.9501 15.9501 2.18184 28 2.18184C40.0499 2.18184 49.8182 11.9501 49.8182 24C49.8182 36.0499 40.0499 45.8182 28 45.8182Z" fill="#00507C"/>
</g>
<defs>
<filter id="filter0_d_791_614" x="0" y="0" width="56" height="56" filterUnits="userSpaceOnUse" color-interpolation-filters="sRGB">
<feFlood flood-opacity="0" result="BackgroundImageFix"/>
<feColorMatrix in="SourceAlpha" type="matrix" values="0 0 0 0 0 0 0 0 0 0 0 0 0 0 0 0 0 0 127 0" result="hardAlpha"/>
<feOffset dy="4"/>
<feGaussianBlur stdDeviation="2"/>
<feComposite in2="hardAlpha" operator="out"/>
<feColorMatrix type="matrix" values="0 0 0 0 0 0 0 0 0 0 0 0 0 0 0 0 0 0 0.25 0"/>
<feBlend mode="normal" in2="BackgroundImageFix" result="effect1_dropShadow_791_614"/>
<feBlend mode="normal" in="SourceGraphic" in2="effect1_dropShadow_791_614" result="shape"/>
</filter>
<clipPath id="clip0_791_614">
<rect width="48" height="48" fill="white" transform="translate(4)"/>
</clipPath>
</defs>
</svg>
