<svg width="100" height="108" viewBox="0 0 100 108" fill="none" xmlns="http://www.w3.org/2000/svg">
<g clip-path="url(#clip0_905_864)">
<path d="M100 13.251V42.5491H0V13.251C0 9.8092 2.79188 7.01523 6.23576 7.01523H93.7642C97.206 7.01523 100 9.80711 100 13.251Z" fill="#00507C"/>
<path d="M100 42.5491V100.779C100 104.221 97.2081 107.015 93.7642 107.015H6.23576C2.79397 107.015 0 104.223 0 100.779V42.5491H100Z" fill="#B8BFC4"/>
<path d="M0 38.938H100V42.5511H0V38.938Z" fill="#00507C"/>
<path d="M13.336 14.0326C14.6402 14.0326 15.6974 12.9753 15.6974 11.6712C15.6974 10.367 14.6402 9.30975 13.336 9.30975C12.0318 9.30975 10.9746 10.367 10.9746 11.6712C10.9746 12.9753 12.0318 14.0326 13.336 14.0326Z" fill="black"/>
<path d="M13.3356 0C14.2571 0 15.0032 0.746035 15.0032 1.66761V11.3932C15.0032 12.3148 14.2571 13.0608 13.3356 13.0608C12.414 13.0608 11.668 12.3148 11.668 11.3932V1.66761C11.668 0.746035 12.414 0 13.3356 0V0Z" fill="#E1EFFF"/>
<path d="M13.3359 0C14.2554 0 15.0035 0.748124 15.0035 1.66761V11.3932C15.0035 12.3127 14.2554 13.0608 13.3359 13.0608V0Z" fill="#C1D1D3"/>
<path d="M25.5626 14.0326C26.8667 14.0326 27.924 12.9753 27.924 11.6712C27.924 10.367 26.8667 9.30975 25.5626 9.30975C24.2584 9.30975 23.2012 10.367 23.2012 11.6712C23.2012 12.9753 24.2584 14.0326 25.5626 14.0326Z" fill="black"/>
<path d="M25.5621 0C26.4837 0 27.2297 0.746035 27.2297 1.66761V11.3932C27.2297 12.3148 26.4837 13.0608 25.5621 13.0608C24.6406 13.0608 23.8945 12.3148 23.8945 11.3932V1.66761C23.8945 0.746035 24.6406 0 25.5621 0V0Z" fill="#E1EFFF"/>
<path d="M25.5625 0C26.482 0 27.2301 0.748124 27.2301 1.66761V11.3932C27.2301 12.3127 26.482 13.0608 25.5625 13.0608V0Z" fill="#C1D1D3"/>
<path d="M37.7891 14.0326C39.0933 14.0326 40.1505 12.9753 40.1505 11.6712C40.1505 10.367 39.0933 9.30975 37.7891 9.30975C36.485 9.30975 35.4277 10.367 35.4277 11.6712C35.4277 12.9753 36.485 14.0326 37.7891 14.0326Z" fill="black"/>
<path d="M37.7907 0C38.7122 0 39.4583 0.746035 39.4583 1.66761V11.3932C39.4583 12.3148 38.7122 13.0608 37.7907 13.0608C36.8691 13.0608 36.123 12.3148 36.123 11.3932V1.66761C36.123 0.746035 36.8691 0 37.7907 0V0Z" fill="#E1EFFF"/>
<path d="M37.791 0C38.7105 0 39.4586 0.748124 39.4586 1.66761V11.3932C39.4586 12.3127 38.7105 13.0608 37.791 13.0608V0Z" fill="#C1D1D3"/>
<path d="M50.0157 14.0326C51.3199 14.0326 52.3771 12.9753 52.3771 11.6712C52.3771 10.367 51.3199 9.30975 50.0157 9.30975C48.7115 9.30975 47.6543 10.367 47.6543 11.6712C47.6543 12.9753 48.7115 14.0326 50.0157 14.0326Z" fill="black"/>
<path d="M50.0153 0C50.9368 0 51.6829 0.746035 51.6829 1.66761V11.3932C51.6829 12.3148 50.9368 13.0608 50.0153 13.0608C49.0937 13.0608 48.3477 12.3148 48.3477 11.3932V1.66761C48.3477 0.746035 49.0937 0 50.0153 0V0Z" fill="#E1EFFF"/>
<path d="M50.0156 0C50.9351 0 51.6832 0.748124 51.6832 1.66761V11.3932C51.6832 12.3127 50.9351 13.0608 50.0156 13.0608V0Z" fill="#C1D1D3"/>
<path d="M62.2423 14.0326C63.5464 14.0326 64.6037 12.9753 64.6037 11.6712C64.6037 10.367 63.5464 9.30975 62.2423 9.30975C60.9381 9.30975 59.8809 10.367 59.8809 11.6712C59.8809 12.9753 60.9381 14.0326 62.2423 14.0326Z" fill="black"/>
<path d="M62.2418 0C63.1634 0 63.9094 0.746035 63.9094 1.66761V11.3932C63.9094 12.3148 63.1634 13.0608 62.2418 13.0608C61.3203 13.0608 60.5742 12.3148 60.5742 11.3932V1.66761C60.5742 0.746035 61.3203 0 62.2418 0V0Z" fill="#E1EFFF"/>
<path d="M62.2422 0C63.1617 0 63.9098 0.748124 63.9098 1.66761V11.3932C63.9098 12.3127 63.1617 13.0608 62.2422 13.0608V0Z" fill="#C1D1D3"/>
<path d="M74.4669 14.0326C75.771 14.0326 76.8283 12.9753 76.8283 11.6712C76.8283 10.367 75.771 9.30975 74.4669 9.30975C73.1627 9.30975 72.1055 10.367 72.1055 11.6712C72.1055 12.9753 73.1627 14.0326 74.4669 14.0326Z" fill="black"/>
<path d="M74.4664 0C75.388 0 76.134 0.746035 76.134 1.66761V11.3932C76.134 12.3148 75.388 13.0608 74.4664 13.0608C73.5449 13.0608 72.7988 12.3148 72.7988 11.3932V1.66761C72.7988 0.746035 73.5449 0 74.4664 0V0Z" fill="#E1EFFF"/>
<path d="M74.4668 0C75.3863 0 76.1344 0.748124 76.1344 1.66761V11.3932C76.1344 12.3127 75.3863 13.0608 74.4668 13.0608V0Z" fill="#C1D1D3"/>
<path d="M86.6934 14.0326C87.9976 14.0326 89.0548 12.9753 89.0548 11.6712C89.0548 10.367 87.9976 9.30975 86.6934 9.30975C85.3893 9.30975 84.332 10.367 84.332 11.6712C84.332 12.9753 85.3893 14.0326 86.6934 14.0326Z" fill="black"/>
<path d="M86.6949 0C87.6165 0 88.3626 0.746035 88.3626 1.66761V11.3932C88.3626 12.3148 87.6165 13.0608 86.6949 13.0608C85.7734 13.0608 85.0273 12.3148 85.0273 11.3932V1.66761C85.0273 0.746035 85.7734 0 86.6949 0V0Z" fill="#E1EFFF"/>
<path d="M86.6934 0C87.6128 0 88.361 0.748124 88.361 1.66761V11.3932C88.361 12.3127 87.6128 13.0608 86.6934 13.0608V0Z" fill="#C1D1D3"/>
<path d="M100 42.5491V81.3972C97.6741 89.4301 91.9754 95.2521 86.6947 98.3073C77.3055 103.743 69.0511 105.346 54.6528 107.013H6.23576C2.79397 107.013 0 104.221 0 100.777V42.5491H100Z" fill="#DCE9F4"/>
<path d="M100 42.5491V81.3972C96.8884 91.8229 88.3623 79.8299 88.3623 79.8299C88.3623 79.8299 72.94 105.486 54.6549 107.013H6.23576C2.79397 107.013 0 104.221 0 100.777V42.5491H100Z" fill="#F9F9F9"/>
<path d="M25.3239 25.7102C25.2784 25.2519 25.0833 24.8958 24.7386 24.642C24.3939 24.3883 23.9261 24.2614 23.3352 24.2614C22.9337 24.2614 22.5947 24.3182 22.3182 24.4318C22.0417 24.5417 21.8295 24.6951 21.6818 24.892C21.5379 25.089 21.4659 25.3125 21.4659 25.5625C21.4583 25.7708 21.5019 25.9527 21.5966 26.108C21.6951 26.2633 21.8295 26.3977 22 26.5114C22.1705 26.6212 22.3674 26.7178 22.5909 26.8011C22.8144 26.8807 23.053 26.9489 23.3068 27.0057L24.3523 27.2557C24.8598 27.3693 25.3258 27.5208 25.75 27.7102C26.1742 27.8996 26.5417 28.1326 26.8523 28.4091C27.1629 28.6856 27.4034 29.0114 27.5739 29.3864C27.7481 29.7614 27.8371 30.1913 27.8409 30.6761C27.8371 31.3883 27.6553 32.0057 27.2955 32.5284C26.9394 33.0473 26.4242 33.4508 25.75 33.7386C25.0795 34.0227 24.2708 34.1648 23.3239 34.1648C22.3845 34.1648 21.5663 34.0208 20.8693 33.733C20.1761 33.4451 19.6345 33.0189 19.2443 32.4545C18.858 31.8864 18.6553 31.1837 18.6364 30.3466H21.017C21.0436 30.7367 21.1553 31.0625 21.3523 31.3239C21.553 31.5814 21.8201 31.7765 22.1534 31.9091C22.4905 32.0379 22.8712 32.1023 23.2955 32.1023C23.7121 32.1023 24.0739 32.0417 24.3807 31.9205C24.6913 31.7992 24.9318 31.6307 25.1023 31.4148C25.2727 31.1989 25.358 30.9508 25.358 30.6705C25.358 30.4091 25.2803 30.1894 25.125 30.0114C24.9735 29.8333 24.75 29.6818 24.4545 29.5568C24.1629 29.4318 23.8049 29.3182 23.3807 29.2159L22.1136 28.8977C21.1326 28.6591 20.358 28.286 19.7898 27.7784C19.2216 27.2708 18.9394 26.5871 18.9432 25.7273C18.9394 25.0227 19.1269 24.4072 19.5057 23.8807C19.8883 23.3542 20.4129 22.9432 21.0795 22.6477C21.7462 22.3523 22.5038 22.2045 23.3523 22.2045C24.2159 22.2045 24.9697 22.3523 25.6136 22.6477C26.2614 22.9432 26.7652 23.3542 27.125 23.8807C27.4848 24.4072 27.6705 25.017 27.6818 25.7102H25.3239ZM35.0469 30.2841V25.2727H37.4673V34H35.1435V32.4148H35.0526C34.8556 32.9261 34.5279 33.3371 34.0696 33.6477C33.6151 33.9583 33.0601 34.1136 32.4048 34.1136C31.8215 34.1136 31.3082 33.9811 30.8651 33.7159C30.4219 33.4508 30.0753 33.0739 29.8253 32.5852C29.5791 32.0966 29.4541 31.5114 29.4503 30.8295V25.2727H31.8707V30.3977C31.8745 30.9129 32.0128 31.3201 32.2855 31.6193C32.5582 31.9186 32.9238 32.0682 33.3821 32.0682C33.6738 32.0682 33.9465 32.0019 34.2003 31.8693C34.4541 31.733 34.6586 31.5322 34.8139 31.267C34.973 31.0019 35.0507 30.6742 35.0469 30.2841ZM41.8239 28.9545V34H39.4034V25.2727H41.7102V26.8125H41.8125C42.0057 26.3049 42.3295 25.9034 42.7841 25.608C43.2386 25.3087 43.7898 25.1591 44.4375 25.1591C45.0436 25.1591 45.572 25.2917 46.0227 25.5568C46.4735 25.822 46.8239 26.2008 47.0739 26.6932C47.3239 27.1818 47.4489 27.7652 47.4489 28.4432V34H45.0284V28.875C45.0322 28.3409 44.8958 27.9242 44.6193 27.625C44.3428 27.322 43.9621 27.1705 43.4773 27.1705C43.1515 27.1705 42.8636 27.2405 42.6136 27.3807C42.3674 27.5208 42.1742 27.7254 42.0341 27.9943C41.8977 28.2595 41.8277 28.5795 41.8239 28.9545ZM52.5724 34.142C51.9096 34.142 51.3092 33.9716 50.7713 33.6307C50.2372 33.286 49.813 32.7803 49.4986 32.1136C49.188 31.4432 49.0327 30.6212 49.0327 29.6477C49.0327 28.6477 49.1937 27.8163 49.5156 27.1534C49.8376 26.4867 50.2656 25.9886 50.7997 25.6591C51.3376 25.3258 51.9266 25.1591 52.5668 25.1591C53.0554 25.1591 53.4626 25.2424 53.7884 25.4091C54.1179 25.572 54.383 25.7765 54.5838 26.0227C54.7884 26.2652 54.9437 26.5038 55.0497 26.7386H55.1236V22.3636H57.5384V34H55.152V32.6023H55.0497C54.9361 32.8447 54.7751 33.0852 54.5668 33.3239C54.3622 33.5587 54.0952 33.7538 53.7656 33.9091C53.4399 34.0644 53.0421 34.142 52.5724 34.142ZM53.3395 32.2159C53.7296 32.2159 54.0592 32.1098 54.3281 31.8977C54.6009 31.6818 54.8092 31.3807 54.9531 30.9943C55.1009 30.608 55.1747 30.1553 55.1747 29.6364C55.1747 29.1174 55.1027 28.6667 54.9588 28.2841C54.8149 27.9015 54.6065 27.6061 54.3338 27.3977C54.0611 27.1894 53.7296 27.0852 53.3395 27.0852C52.9418 27.0852 52.6065 27.1932 52.3338 27.4091C52.0611 27.625 51.8546 27.9242 51.7145 28.3068C51.5743 28.6894 51.5043 29.1326 51.5043 29.6364C51.5043 30.1439 51.5743 30.5928 51.7145 30.983C51.8584 31.3693 52.0649 31.6723 52.3338 31.892C52.6065 32.108 52.9418 32.2159 53.3395 32.2159ZM62.017 34.1648C61.4602 34.1648 60.964 34.0682 60.5284 33.875C60.0928 33.678 59.7481 33.3883 59.4943 33.0057C59.2443 32.6193 59.1193 32.1383 59.1193 31.5625C59.1193 31.0777 59.2083 30.6705 59.3864 30.3409C59.5644 30.0114 59.8068 29.7462 60.1136 29.5455C60.4205 29.3447 60.7689 29.1932 61.1591 29.0909C61.553 28.9886 61.9659 28.9167 62.3977 28.875C62.9053 28.822 63.3144 28.7727 63.625 28.7273C63.9356 28.678 64.161 28.6061 64.3011 28.5114C64.4413 28.4167 64.5114 28.2765 64.5114 28.0909V28.0568C64.5114 27.697 64.3977 27.4186 64.1705 27.2216C63.947 27.0246 63.6288 26.9261 63.2159 26.9261C62.7803 26.9261 62.4337 27.0227 62.1761 27.2159C61.9186 27.4053 61.7481 27.6439 61.6648 27.9318L59.4261 27.75C59.5398 27.2197 59.7633 26.7614 60.0966 26.375C60.4299 25.9848 60.8598 25.6856 61.3864 25.4773C61.9167 25.2652 62.5303 25.1591 63.2273 25.1591C63.7121 25.1591 64.1761 25.2159 64.6193 25.3295C65.0663 25.4432 65.4621 25.6193 65.8068 25.858C66.1553 26.0966 66.4299 26.4034 66.6307 26.7784C66.8314 27.1496 66.9318 27.5947 66.9318 28.1136V34H64.6364V32.7898H64.5682C64.428 33.0625 64.2405 33.303 64.0057 33.5114C63.7708 33.7159 63.4886 33.8769 63.1591 33.9943C62.8295 34.108 62.4489 34.1648 62.017 34.1648ZM62.7102 32.4943C63.0663 32.4943 63.3807 32.4242 63.6534 32.2841C63.9261 32.1402 64.1402 31.947 64.2955 31.7045C64.4508 31.4621 64.5284 31.1875 64.5284 30.8807V29.9545C64.4527 30.0038 64.3485 30.0492 64.2159 30.0909C64.0871 30.1288 63.9413 30.1648 63.7784 30.1989C63.6155 30.2292 63.4527 30.2576 63.2898 30.2841C63.1269 30.3068 62.9792 30.3277 62.8466 30.3466C62.5625 30.3883 62.3144 30.4545 62.1023 30.5455C61.8902 30.6364 61.7254 30.7595 61.608 30.9148C61.4905 31.0663 61.4318 31.2557 61.4318 31.483C61.4318 31.8125 61.5511 32.0644 61.7898 32.2386C62.0322 32.4091 62.339 32.4943 62.7102 32.4943ZM69.9915 37.2727C69.6847 37.2727 69.3968 37.2481 69.1278 37.1989C68.8627 37.1534 68.643 37.0947 68.4688 37.0227L69.0142 35.2159C69.2983 35.303 69.554 35.3504 69.7812 35.358C70.0123 35.3655 70.2112 35.3125 70.3778 35.1989C70.5483 35.0852 70.6866 34.892 70.7926 34.6193L70.9347 34.25L67.804 25.2727H70.3494L72.1562 31.6818H72.2472L74.071 25.2727H76.6335L73.2415 34.9432C73.0786 35.4129 72.857 35.822 72.5767 36.1705C72.3002 36.5227 71.9498 36.7936 71.5256 36.983C71.1013 37.1761 70.59 37.2727 69.9915 37.2727Z" fill="white"/>
<path d="M34.1108 84.3977C31.9896 84.3977 30.1004 84.0331 28.4432 83.304C26.7955 82.5653 25.4934 81.5521 24.5369 80.2642C23.59 78.9669 23.1023 77.4706 23.0739 75.7756H29.267C29.3049 76.4858 29.5369 77.1108 29.9631 77.6506C30.3987 78.1809 30.9763 78.5928 31.696 78.8864C32.4157 79.1799 33.2254 79.3267 34.125 79.3267C35.0625 79.3267 35.8911 79.161 36.6108 78.8295C37.3305 78.4981 37.8939 78.0388 38.3011 77.4517C38.7083 76.8646 38.9119 76.1875 38.9119 75.4205C38.9119 74.6439 38.6941 73.9574 38.2585 73.3608C37.8324 72.7547 37.2169 72.2812 36.4119 71.9403C35.6165 71.5994 34.6695 71.429 33.571 71.429H30.858V66.9119H33.571C34.4991 66.9119 35.3182 66.7509 36.0284 66.429C36.7481 66.107 37.3068 65.6619 37.7045 65.0938C38.1023 64.5161 38.3011 63.8438 38.3011 63.0767C38.3011 62.3475 38.1259 61.7083 37.7756 61.1591C37.4347 60.6004 36.9517 60.1648 36.3267 59.8523C35.7112 59.5398 34.9915 59.3835 34.1676 59.3835C33.3343 59.3835 32.572 59.535 31.8807 59.8381C31.1894 60.1316 30.6354 60.553 30.2188 61.1023C29.8021 61.6515 29.5795 62.2955 29.5511 63.0341H23.6562C23.6847 61.358 24.1629 59.8807 25.0909 58.6023C26.0189 57.3239 27.2689 56.3248 28.8409 55.6051C30.4223 54.8759 32.2074 54.5114 34.196 54.5114C36.2036 54.5114 37.9602 54.8759 39.4659 55.6051C40.9716 56.3343 42.1411 57.3191 42.9744 58.5597C43.8172 59.7907 44.2339 61.1733 44.2244 62.7074C44.2339 64.3362 43.7273 65.6951 42.7045 66.7841C41.6913 67.8731 40.3703 68.5644 38.7415 68.858V69.0852C40.8816 69.3598 42.5104 70.1032 43.6278 71.3153C44.7547 72.518 45.3134 74.0237 45.304 75.8324C45.3134 77.4896 44.8352 78.9621 43.8693 80.25C42.9129 81.5379 41.5919 82.5511 39.9062 83.2898C38.2206 84.0284 36.2888 84.3977 34.1108 84.3977ZM61.1314 84.6392C58.6882 84.6297 56.5859 84.0284 54.8246 82.8352C53.0727 81.642 51.7232 79.9138 50.7763 77.6506C49.8388 75.3873 49.3748 72.6648 49.3842 69.483C49.3842 66.3106 49.853 63.607 50.7905 61.3722C51.7375 59.1373 53.0869 57.4375 54.8388 56.2727C56.6001 55.0985 58.6977 54.5114 61.1314 54.5114C63.5651 54.5114 65.6579 55.0985 67.4098 56.2727C69.1712 57.447 70.5253 59.1515 71.4723 61.3864C72.4193 63.6117 72.888 66.3106 72.8786 69.483C72.8786 72.6742 72.4051 75.4015 71.4581 77.6648C70.5206 79.928 69.1759 81.6562 67.424 82.8494C65.6721 84.0426 63.5746 84.6392 61.1314 84.6392ZM61.1314 79.5398C62.7981 79.5398 64.1286 78.7017 65.1229 77.0256C66.1172 75.3494 66.6096 72.8352 66.6001 69.483C66.6001 67.2765 66.3729 65.4394 65.9183 63.9716C65.4732 62.5038 64.8388 61.4006 64.0149 60.6619C63.2005 59.9233 62.2393 59.554 61.1314 59.554C59.4742 59.554 58.1484 60.3826 57.1541 62.0398C56.1598 63.697 55.6579 66.178 55.6484 69.483C55.6484 71.7178 55.871 73.5833 56.3161 75.0795C56.7706 76.5663 57.4098 77.6837 58.2337 78.4318C59.0575 79.1705 60.0234 79.5398 61.1314 79.5398Z" fill="#00507C"/>
</g>
<defs>
<clipPath id="clip0_905_864">
<rect width="100" height="107.015" fill="white"/>
</clipPath>
</defs>
</svg>
