<svg width="34" height="34" viewBox="0 0 34 34" fill="none" xmlns="http://www.w3.org/2000/svg">
<path d="M27 0.75H7C3.554 0.75 0.75 3.554 0.75 7V27C0.75 30.446 3.554 33.25 7 33.25H27C30.446 33.25 33.25 30.446 33.25 27V7C33.25 3.554 30.446 0.75 27 0.75ZM30.75 27C30.75 29.0679 29.0679 30.75 27 30.75H7C4.93213 30.75 3.25 29.0679 3.25 27V7C3.25 4.93213 4.93213 3.25 7 3.25H27C29.0679 3.25 30.75 4.93213 30.75 7V27ZM14.9419 10.8258L10.0176 15.75H27.625C27.9701 15.75 28.25 16.0299 28.25 16.375V17.625C28.25 17.9701 27.9701 18.25 27.625 18.25H10.0176L14.9419 23.1742C15.186 23.4184 15.186 23.814 14.9419 24.0581L14.0581 24.9419C13.814 25.186 13.4184 25.186 13.1742 24.9419L6.11625 17.8838C5.62813 17.3956 5.62813 16.6042 6.11625 16.1161L13.1742 9.05812C13.4184 8.814 13.814 8.814 14.0581 9.05812L14.9419 9.94188C15.1859 10.1859 15.1859 10.5816 14.9419 10.8258Z" fill="#00507C"/>
</svg>
