<svg width="34" height="34" viewBox="0 0 34 34" fill="none" xmlns="http://www.w3.org/2000/svg">
<path d="M7 0.75H27C30.446 0.75 33.25 3.554 33.25 7V27C33.25 30.446 30.446 33.25 27 33.25H7C3.554 33.25 0.75 30.446 0.75 27V7C0.75 3.554 3.554 0.75 7 0.75ZM3.25 27C3.25 29.0679 4.93213 30.75 7 30.75H27C29.0679 30.75 30.75 29.0679 30.75 27V7C30.75 4.93213 29.0679 3.25 27 3.25H7C4.93213 3.25 3.25 4.93213 3.25 7V27ZM19.0581 10.8258L23.9824 15.75H6.375C6.02987 15.75 5.75 16.0299 5.75 16.375V17.625C5.75 17.9701 6.02987 18.25 6.375 18.25H23.9824L19.0581 23.1742C18.814 23.4184 18.814 23.814 19.0581 24.0581L19.9419 24.9419C20.186 25.186 20.5816 25.186 20.8258 24.9419L27.8837 17.8838C28.3719 17.3956 28.3719 16.6042 27.8837 16.1161L20.8258 9.05812C20.5816 8.814 20.186 8.814 19.9419 9.05812L19.0581 9.94188C18.8141 10.1859 18.8141 10.5816 19.0581 10.8258Z" fill="#00507C"/>
</svg>
