<svg width="192" height="30" viewBox="0 0 192 30" fill="none" xmlns="http://www.w3.org/2000/svg">
<path d="M15.2839 24.1023L5.83969 29.0684L7.64346 18.5518L0 11.1026L10.5595 9.5681L15.2839 0L20.0067 9.5681L30.5662 11.1026L22.9243 18.5518L24.7296 29.0684L15.2839 24.1023Z" fill="#00507C"/>
<path d="M55.6432 24.1024L46.1991 29.0685L48.0028 18.5518L40.3594 11.1027L50.9189 9.56816L55.6432 6.10352e-05L60.3661 9.56816L70.9256 11.1027L63.2836 18.5518L65.0889 29.0685L55.6432 24.1024Z" fill="#00507C"/>
<path d="M96.0007 24.1024L86.5565 29.0685L88.3603 18.5518L80.7168 11.1027L91.2763 9.56816L96.0007 6.10352e-05L100.724 9.56816L111.283 11.1027L103.641 18.5518L105.446 29.0685L96.0007 24.1024Z" fill="#00507C"/>
<path d="M136.593 23.6598L136.36 23.5375L136.127 23.6598L127.58 28.1544L129.212 18.6364L129.257 18.3772L129.069 18.1938L122.151 11.4518L131.708 10.063L131.968 10.0252L132.084 9.78952L136.36 1.12955L140.635 9.78947L140.751 10.0252L141.011 10.063L150.568 11.4518L143.651 18.1938L143.463 18.3773L143.508 18.6364L145.142 28.1544L136.593 23.6598Z" fill="#00507C" stroke="#00507C"/>
<path d="M176.95 23.6598L176.717 23.5375L176.485 23.6598L167.937 28.1544L169.57 18.6364L169.614 18.3772L169.426 18.1938L162.508 11.4518L172.065 10.063L172.325 10.0252L172.441 9.78952L176.717 1.12955L180.992 9.78947L181.108 10.0252L181.368 10.063L190.925 11.4518L184.009 18.1938L183.821 18.3773L183.865 18.6364L185.499 28.1544L176.95 23.6598Z" fill="#00507C" stroke="#00507C"/>
</svg>
